<svg width="36" height="36" viewBox="0 0 36 36" fill="none" xmlns="http://www.w3.org/2000/svg">
<path d="M32.4458 24.6762H11.5102L12.5614 22.5352L30.027 22.5035C30.6176 22.5035 31.1239 22.0816 31.2294 21.498L33.6481 7.95938C33.7114 7.6043 33.6165 7.23867 33.3844 6.96094C33.2698 6.82425 33.1267 6.71415 32.9652 6.63826C32.8038 6.56238 32.6277 6.52253 32.4493 6.52148L10.2305 6.44766L10.0407 5.55469C9.92115 4.98516 9.40786 4.57031 8.82427 4.57031H3.39263C3.06349 4.57031 2.74783 4.70106 2.5151 4.9338C2.28236 5.16653 2.15161 5.48219 2.15161 5.81133C2.15161 6.14047 2.28236 6.45612 2.5151 6.68886C2.74783 6.92159 3.06349 7.05234 3.39263 7.05234H7.8188L8.64849 10.9969L10.6911 20.8863L8.06138 25.1789C7.92482 25.3632 7.84256 25.5821 7.82392 25.8107C7.80528 26.0394 7.851 26.2687 7.95591 26.4727C8.16685 26.891 8.59224 27.1547 9.06333 27.1547H11.2711C10.8005 27.7798 10.5462 28.5413 10.5469 29.3238C10.5469 31.3137 12.1641 32.9309 14.154 32.9309C16.1438 32.9309 17.761 31.3137 17.761 29.3238C17.761 28.5398 17.5008 27.777 17.0368 27.1547H22.7004C22.2298 27.7798 21.9755 28.5413 21.9762 29.3238C21.9762 31.3137 23.5934 32.9309 25.5833 32.9309C27.5731 32.9309 29.1903 31.3137 29.1903 29.3238C29.1903 28.5398 28.9301 27.777 28.4661 27.1547H32.4493C33.1313 27.1547 33.6903 26.5992 33.6903 25.9137C33.6882 25.5849 33.5563 25.2702 33.3231 25.0384C33.0899 24.8066 32.7746 24.6764 32.4458 24.6762ZM10.7473 8.89453L30.9903 8.96133L29.0075 20.0637L13.1063 20.0918L10.7473 8.89453ZM14.154 30.4348C13.5422 30.4348 13.043 29.9355 13.043 29.3238C13.043 28.7121 13.5422 28.2129 14.154 28.2129C14.7657 28.2129 15.2649 28.7121 15.2649 29.3238C15.2649 29.6185 15.1479 29.901 14.9395 30.1094C14.7312 30.3177 14.4486 30.4348 14.154 30.4348ZM25.5833 30.4348C24.9715 30.4348 24.4723 29.9355 24.4723 29.3238C24.4723 28.7121 24.9715 28.2129 25.5833 28.2129C26.195 28.2129 26.6942 28.7121 26.6942 29.3238C26.6942 29.6185 26.5772 29.901 26.3688 30.1094C26.1605 30.3177 25.8779 30.4348 25.5833 30.4348Z" fill="black"/>
</svg>
